<?xml version="1.0" standalone="no"?>
<!DOCTYPE svg PUBLIC "-//W3C//DTD SVG 20010904//EN"
 "http://www.w3.org/TR/2001/REC-SVG-20010904/DTD/svg10.dtd">
<svg version="1.0" xmlns="http://www.w3.org/2000/svg"
 width="2048.000000pt" height="2048.000000pt" viewBox="0 0 2048.000000 2048.000000"
 preserveAspectRatio="xMidYMid meet">

<g transform="translate(0.000000,2048.000000) scale(0.100000,-0.100000)"
fill="#000000" stroke="none">
<path d="M9628 19328 l-3 -543 -85 -7 c-1175 -104 -2033 -408 -2759 -979 -136
-108 -412 -383 -524 -524 -444 -556 -698 -1204 -787 -2010 -18 -161 -24 -649
-11 -856 92 -1426 667 -2446 1774 -3148 499 -317 989 -525 2162 -919 l230 -77
3 -2944 2 -2944 -72 7 c-40 4 -151 18 -247 32 -894 129 -1527 412 -1922 858
-213 240 -386 574 -484 932 -101 367 -145 740 -146 1215 l0 259 -67 0 c-37 0
-362 9 -722 20 -360 11 -699 20 -752 20 l-98 0 0 -282 c0 -1505 401 -2632
1221 -3434 687 -670 1626 -1071 2879 -1228 107 -14 231 -27 275 -31 44 -3 92
-9 108 -11 l27 -6 0 -1059 0 -1059 610 0 610 0 2 1053 3 1052 105 7 c418 28
790 79 1150 159 1194 263 2108 846 2675 1704 407 618 627 1317 695 2210 14
184 14 745 0 910 -41 479 -170 959 -371 1375 -195 404 -410 704 -733 1025
-338 337 -682 582 -1151 820 -622 316 -1320 532 -2270 703 l-100 17 -3 2749
-2 2749 87 -7 c339 -27 731 -105 1016 -202 609 -208 1003 -534 1236 -1026 157
-331 225 -661 247 -1209 l6 -146 456 -6 c252 -4 619 -10 816 -14 l359 -6 -6
269 c-6 285 -23 488 -62 721 -117 691 -353 1252 -741 1753 -114 148 -427 461
-574 574 -373 288 -769 495 -1245 654 -418 139 -924 237 -1430 275 l-160 12
-3 543 -2 542 -610 0 -610 0 -2 -542z m2 -4759 l0 -2571 -27 7 c-16 3 -107 34
-203 67 -785 270 -1252 504 -1595 799 -427 366 -647 856 -706 1574 -17 207 -7
634 20 803 145 939 717 1514 1763 1772 207 51 586 114 721 119 l27 1 0 -2571z
m1377 -4620 c1190 -247 1986 -655 2424 -1241 210 -281 348 -630 403 -1018 35
-247 29 -702 -14 -1037 -141 -1094 -677 -1746 -1710 -2078 -314 -101 -775
-184 -1162 -211 l-98 -7 0 2812 c0 1546 2 2811 5 2811 2 0 71 -14 152 -31z"/>
</g>
</svg>
